{"title":"Cruel Restaurant 2008 Zankoku hanten DVDRip Eng Subtitles XviD L","uid":10149964,"size":835393305,"categoryP":"video","categoryS":"movies","magnet":"?xt=urn:btih:0b70038a422fe5eeddd26e5884bec97cdc6b7771&amp;dn=Cruel+Restaurant+2008+Zankoku+hanten+DVDRip+Eng+Subtitles+XviD+L&amp;tr=udp%3A%2F%2Ftracker.openbittorrent.com%3A80&amp;tr=udp%3A%2F%2Fopen.demonii.com%3A1337&amp;tr=udp%3A%2F%2Ftracker.coppersurfer.tk%3A6969&amp;tr=udp%3A%2F%2Fexodus.desync.com%3A6969","seeders":1,"leechers":1,"uploader":".BONE.","files":2,"time":1400091549,"description":"PLOT\n\nThis dark comedy revolves around a dumpling restaurant in Japan and its waitress Ms. Lin,\nplayed by Mihiro. Lin is haunted by disturbing visions she cannot figure out, like dead bodies, laying heads and\nbody parts.\n\n\nRuntime ..........: 1h 14mn\nFile Size ........: 797 MiB\nResolution .......: 704 x 384 &lt;a href=&quot;\nhttp://www.imdb.com/title/tt1295032/&quot; rel=&quot;nofollow&quot; target=&quot;_NEW&quot;&gt;\nhttp://www.imdb.com/title/tt1295032/&lt;/a&gt;\nGenre ............: Horror, Strong Sexual Content\nLanguage .........: Japanese\nSubtitles ........: Hard Coded Subs English\nFormat : AVI\nFormat/Info : Audio Video Interleave\nFile size : 797 MiB\nDuration : 1h 14mn\nOverall bit rate : 1 496 Kbps\nWriting application : VirtualDubMod 1.5.10.2 (build 2540/release)\nWriting library : VirtualDubMod build 2540/release\nVideo\nID : 0\nFormat : MPEG-4 Visual\nFormat profile : Advanced Simple@L5\nFormat settings, BVOP : 2\nFormat settings, QPel : No\nFormat settings, GMC : No warppoints\nFormat settings, Matrix : Default (H.263)\nMuxing mode : Packed bitstream\nCodec ID : XVID\nCodec ID/Hint : XviD\nDuration : 1h 14mn\nBit rate : 1 261 Kbps\nWidth : 704 pixels\nHeight : 384 pixels\nDisplay aspect ratio : 1.85:1\nFrame rate : 29.970 fps\nColor space : YUV\nChroma subsampling : 4:2:0\nBit depth : 8 bits\nScan type : Progressive\nCompression mode : Lossy\nBits/(Pixel*Frame) : 0.156\nStream size : 671 MiB (84%)\nWriting library : XviD 1.2.1 (UTC 2008-12-04)\nAudio\nID : 1\nFormat : AC-3\nFormat/Info : Audio Coding 3\nMode extension : CM (complete main)\nFormat settings, Endianness : Big\nCodec ID : 2000\nDuration : 1h 14mn\nBit rate mode : Constant\nBit rate : 224 Kbps\nChannel(s) : 2 channels\nChannel positions : Front: L R\nSampling rate : 48.0 KHz\nBit depth : 16 bits\nCompression mode : Lossy\nStream size : 119 MiB (15%)\nAlignment : Split accross interleaves\nInterleave, duration : 33 ms (1.00 video frame)\nInterleave, preload duration : 500 ms","torrent":{"xt":"urn:btih:0b70038a422fe5eeddd26e5884bec97cdc6b7771","amp;dn":"Cruel+Restaurant+2008+Zankoku+hanten+DVDRip+Eng+Subtitles+XviD+L","amp;tr":["udp%3A%2F%2Ftracker.openbittorrent.com%3A80","udp%3A%2F%2Fopen.demonii.com%3A1337","udp%3A%2F%2Ftracker.coppersurfer.tk%3A6969","udp%3A%2F%2Fexodus.desync.com%3A6969"],"infoHash":"0b70038a422fe5eeddd26e5884bec97cdc6b7771","infoHashBuffer":{"type":"Buffer","data":[11,112,3,138,66,47,229,238,221,210,110,88,132,190,201,124,220,107,119,113]},"announce":[],"urlList":[]}}